/* XPM */
static char *result[] = {
/* columns rows colors chars-per-pixel */
"128 128 13 1 ",
"  c #37946E",
". c #CBDBFC",
"X c #EEC39A",
"o c #D9A066",
"O c #222034",
"+ c #3F3F74",
"@ c #8F974A",
"# c white",
"$ c black",
"% c #FBF236",
"& c #663931",
"* c #9BADB7",
"= c #323C39",
/* pixels */
"                                                             ..                                                                 ",
"                                                             ..                                                                 ",
"                                                             ..                                                                 ",
"                                                             .....                                                              ",
"                                                             .....                                                              ",
"                                                          ..........                                                            ",
"                                                          ..........                                                            ",
"                                                          ..........                                                            ",
"                                                          ..........                                                            ",
"                                                          ..........                                                            ",
"                                             ...          ..........           ..                                               ",
"                                             ...          ..........           ..                                               ",
"                                             ...          ..........           ..                                               ",
"                                             .....      ...............     .....                                               ",
"                                             .....      ...............     .....                                               ",
"                                             ....................................                                               ",
"                                             ....................................                                               ",
"                                             ....................................                                               ",
"                                             ...........XXXXXXXXXXXXXXX..........                                               ",
"                                             ...........XXXXXXXXXXXXXXX..........                                               ",
"                                             ...........XXXXXXXXXXXXXXX..........                                               ",
"                                           ..........XXXXXXXXXXXXXXXXXXXXX..........                                            ",
"                                           ..........XXXXXXXXXXXXXXXXXXXXX..........                                            ",
"                                   ...............XXXXXXXXXXXXXXXXXXXXXXXXXX................                                    ",
"                                   ...............XXXXXXXXXXXXXXXXXXXXXXXXXX................                                    ",
"                                   ...............XXXXXXXXXXXXXXXXXXXXXXXXXX................                                    ",
"                                     .............XXX.....................XX.............                                       ",
"                                     .............XXX.....................XX.............                                       ",
"                                           .......XXXXXXoooooooooooooooXXXXX........                                            ",
"                                           .......XXXXXXoooooooooooooooXXXXX........                                            ",
"                                           .......XXXXXXoooooooooooooooXXXXX........                                            ",
"                                             .....XXXXXXOOXXXXXXXXXXOOOXXXXX.....                                               ",
"                                             .....XXXXXXOOXXXXXXXXXXOOOXXXXX.....                                               ",
"                                           .......XXXXXX++XXXooXXXXX+++XXXXX........                                            ",
"                                           .......XXXXXX++XXXooXXXXX+++XXXXX........                                            ",
"                                           .......XXXXXX++XXXooXXXXX+++XXXXX........                                            ",
"                                           .......XXXXXXooXXXooXXXXXoooXXXXX........                                            ",
"                                           .......XXXXXXooXXXooXXXXXoooXXXXX........                                            ",
"                                           .......XXXXXXooXXXooXXXXXoooXXXXX........                                            ",
"                                        ..........oooXXXXXXXXXXXXXXXXXXXXXoo..........                                          ",
"                                        ..........oooXXXXXXXXXXXXXXXXXXXXXoo..........                                          ",
"                                                ..oooXXXXXooooooooooXXXXXXoo...                                                 ",
"                                                ..oooXXXXXooooooooooXXXXXXoo...                                                 ",
"                                                ..oooXXXXXooooooooooXXXXXXoo...                                                 ",
"                                             ........oooXXXXX@@@@@@@XXXooo.......                                               ",
"                                             ........oooXXXXX@@@@@@@XXXooo.......                                               ",
"                                                     ###XXXXXXX@@@XXXXX###                                                      ",
"                                                     ###XXXXXXX@@@XXXXX###                                                      ",
"                                                     ###XXXXXXX@@@XXXXX###                                                      ",
"                                                  ########..........########                                                    ",
"                                                  ########..........########                                                    ",
"                                                  ########..........########                                                    ",
"                                             #############..........#############                                               ",
"                                             #############..........#############                                               ",
"                                        ##################..........##################                                          ",
"                                        ##################..........##################                                          ",
"                                        ##################..........##################                                          ",
"         XXXXX                       #####################..........#####################                       XXXXX           ",
"         XXXXX                       #####################..........#####################                       XXXXX           ",
"         XXXXXXXX                  #######################..........########################                  XXXXXXX           ",
"         XXXXXXXX                  #######################..........########################                  XXXXXXX           ",
"         XXXXXXXX                  #######################..........########################                  XXXXXXX           ",
"         XXXXXXXX..             ###########     ##########..........###########     ##########             ...XXXXXXX           ",
"         XXXXXXXX..             ###########     ##########..........###########     ##########             ...XXXXXXX           ",
"            XX........     #############          ########..........########          #############     ........XXX             ",
"            XX........     #############          ########..........########          #############     ........XXX             ",
"            XX........     #############          ########..........########          #############     ........XXX             ",
"              .....################               ########..........########                ###############.....                ",
"              .....################               ########..........########                ###############.....                ",
"              .....################               ########..........########                ###############.....                ",
"                 ###############                  ########..........########                  ################                  ",
"                 ###############                  ########..........########                  ################                  ",
"                   ########                       ########..........########                       ########                     ",
"                   ########                       ########..........########                       ########                     ",
"                   ########                       ########..........########                       ########                     ",
"                                                  ########..........########                                                    ",
"                                                  ########..........########                                                    ",
"                                                  ########..........########                                                    ",
"                                                  ########..........########                                                    ",
"                                                  ########..........########                                                    ",
"                                                  ########$$$%%%%%$$########                                                    ",
"                                                  ########$$$%%%%%$$########                                                    ",
"                                                ########&&&&&&&&&&&&&&&########                                                 ",
"                                                ########&&&&&&&&&&&&&&&########                                                 ",
"                                                ########&&&&&&&&&&&&&&&########                                                 ",
"                                             ########&&&&&&&&&&&&&&&&&&&&&#######                                               ",
"                                             ########&&&&&&&&&&&&&&&&&&&&&#######                                               ",
"                                             ########&&&&&&&&&&&&&&&&&&&&&#######                                               ",
"                                           #######&&&&&&&&&&&&&&&&&&&&&&&&&&########                                            ",
"                                           #######&&&&&&&&&&&&&&&&&&&&&&&&&&########                                            ",
"                                        ########&&&&&&&&&&&&&&&&&&&&&&&&&&&&&&&#######                                          ",
"                                        ########&&&&&&&&&&&&&&&&&&&&&&&&&&&&&&&#######                                          ",
"                                        ########&&&&&&&&&&&&&&&&&&&&&&&&&&&&&&&#######                                          ",
"                                     ########&&&&&&&&&&&***************&&&&&&&&&&########                                       ",
"                                     ########&&&&&&&&&&&***************&&&&&&&&&&########                                       ",
"                                     ######&&&&&&&&&&*********************&&&&&&&&&&#####                                       ",
"                                     ######&&&&&&&&&&*********************&&&&&&&&&&#####                                       ",
"                                     ######&&&&&&&&&&*********************&&&&&&&&&&#####                                       ",
"                                   #####&&&&&&&&&&**************************&&&&&&&&&&######                                    ",
"                                   #####&&&&&&&&&&**************************&&&&&&&&&&######                                    ",
"                                #####&&&&&&&&&&&*******************************&&&&&&&&&&#####                                  ",
"                                #####&&&&&&&&&&&*******************************&&&&&&&&&&#####                                  ",
"                                #####&&&&&&&&&&&*******************************&&&&&&&&&&#####                                  ",
"                                ###&&&&&&&&&&                                    &&&&&&&&&&&##                                  ",
"                                ###&&&&&&&&&&                                    &&&&&&&&&&&##                                  ",
"                                ###&&&&&&&&&&                                    &&&&&&&&&&&##                                  ",
"                                   &&&&&&&&&&                                    &&&&&&&&&&&                                    ",
"                                   &&&&&&&&&&                                    &&&&&&&&&&&                                    ",
"                                   &&&&&&&&&&                                    &&&&&&&&&&&                                    ",
"                                   &&&&&&&&&&                                    &&&&&&&&&&&                                    ",
"                                   &&&&&&&&&&                                    &&&&&&&&&&&                                    ",
"                                     &&&&&&&&&&&                               &&&&&&&&&&                                       ",
"                                     &&&&&&&&&&&                               &&&&&&&&&&                                       ",
"                                        &&&&&&&&&&                          &&&&&&&&&&                                          ",
"                                        &&&&&&&&&&                          &&&&&&&&&&                                          ",
"                                        &&&&&&&&&&                          &&&&&&&&&&                                          ",
"                                        &&&&&&&&&&                          &&&&&&&&&&                                          ",
"                                        &&&&&&&&&&                          &&&&&&&&&&                                          ",
"                                        &&&&&&&&&&                          &&&&&&&&&&                                          ",
"                                           &&&&&#####                     #####&&&&&                                            ",
"                                           &&&&&#####                     #####&&&&&                                            ",
"                                             #####===                     ==#####                                               ",
"                                             #####===                     ==#####                                               ",
"                                             #####===                     ==#####                                               ",
"                                        =============                     ============                                          ",
"                                        =============                     ============                                          ",
"                                     =============                          =============                                       ",
"                                     =============                          =============                                       "
};
