/* XPM */
static char *door_161674228586[] = {
/* columns rows colors chars-per-pixel */
"64 64 12 1 ",
"  c None",
". c black",
"X c #141413",
"o c #2F1C17",
"O c #28221F",
"+ c #382B2F",
"@ c #2F3233",
"# c #383F40",
"$ c #3F4748",
"% c #464D4F",
"& c #536265",
"* c #62797E",
/* pixels */
"%#%%%%##@@@X.                                ####%%%%%%%%%%%%%%%",
"#######@@@@X.                                #@@@###############",
"#######@@@OX.                                #@@@###############",
"+++####@@@@X.                                #@@@###oooooooooooo",
"#######@@@OX.                                #@@@##o+###########",
"####%##@@@OX.                                #@@@##o############",
"####%##@@@OX.                                #@@@##o############",
"%%%%&%%###@OX                                &###%%+%%%%%%%%%%%%",
"####%##@@@OX.                                #@@@##o############",
"%%%%&%%###@OX                                &###%%#%%%%%%%%%%%%",
"%%%%*%%###@X.                                &###%%#%%%%%%%%%%%%",
"%%%%&%%###@X.                                &###%%%%%%%%%%%%%%%",
"%%%%*%%###@OX                                &###%%%%&&&*&****&%",
"%%%%*%%###@OX                                &###%%%%%%%%%%%%%%&",
"%%%%*%%###@OX                                &###%%%%%%%%%%%%%%%",
"%%%%*%%###@XX                                %###############$%%",
"%%%%*%%###@OX                                &#################%",
"%%%&*%%####XX                                %#################$",
"****%%%###@OX                                %%%%%%%%#%#%#######",
"%%%%%%%####OOOOOOOOOOXOXXX.@                                ####",
"%%%%%%%####@OOOOOOOOXOXOXXX.                                ####",
"###%%%%##################OX.                                %###",
"%%%%%%%$##################X.                                &###",
"%%%%&%%%#################@X.                                &###",
"%%%%%*%%%$################X.                                &###",
"%%%%%%&%%%%%%%%%%%%%%%###@X.                                &###",
"%%%%%%%&%%%%%%%%%%%%%%###@X.                                &###",
"%%%%%%%%#++++++###%%%%###@X.                                &###",
"%%%%%%%%%%%%%%%%%%%%%%###@X.                                &###",
"%%%%%%%%%%%%%%%%%%%&%%###@X.                                %###",
"%%%%%%%%%%%%%%%%%%%&%%###@XX                                &###",
"%%%%%%%%%%%%%%%%%%%&%%###@XO                                %###",
"%%%%%%%%%%%%%%%%%%%&%%###@OX                                %###",
"%%%%%%%%%%%%%%%%%%%*%%###@XO                                %###",
"%%%%%%%%%%%%%%%%%%%*%%###@OX                                %###",
"%%%%%%%%%%%%%%%%%%&*%%###@XO                                %###",
"%******************%%%####OO                                %###",
"*%%%%%%%%%%%%%%%%%%%%%###@XO                                %###",
"%%%%%%%%%%%%%%%%%%%%%%####OO                                %###",
"%%$######################@XO                                ####",
"%#########################OO                                %###",
"$#########################XO                                ####",
"#######%%%%%%%%%%%%#%#%##OOO                                %###",
"####@XXOOOOOOXOXOXOXOXOXOOOO                                ####",
"####X.XOOOOOXOXOXOXOXOXOOOO@                                ####",
"####X.                                ##########################",
"###@X.                                #########################$",
"####X.                                %########################%",
"###@X.                                #######################$%%",
"###@X.                                %###%%%%%%%%%%%%%%%%%%%%%%",
"###@X.                                &###%%%%%%%%%%%%%%%%%%%%%#",
"###@OX                                &###%%%++++++++++#+######%",
"###@X.                                &###%%+#%%%%%%%%%%%%%%%%%%",
"###@OX                                %###%%+%%%%%%%%%%%%%%%%%%%",
"###@X.                                &###%%+%%%%%%%%%%%%%%%%%%%",
"###OOX                                ####%%+%%%%%%%%%%%%%%%%%%%",
"###@OX                                %###%%#%%%%%%%%%%%%%%%%%%%",
"###OOX                                ####%%#%%%%%%%%%%%%%%%%%%%",
"###OXX                                ####%%#%%%%%%%%%%%%%%%%%%%",
"###OOX                                ####%%%%%%%%%%%%%%%%%%%%%%",
"###OXX                                ####%%%%&&&&&&*****&*&****",
"###OOX                                ####%%%%%%%%%%%%%%%%%%%%%%",
"###OOO                                ####%%%%%%%%%%%%%%%%%%%%%%",
"oooXXX                                XoXXXX+X++++++++++o+o++o+o"
};
