/* XPM */
static char *door_381674228589[] = {
/* columns rows colors chars-per-pixel */
"64 64 9 1 ",
"  c None",
". c black",
"X c #141413",
"o c #2F1C17",
"O c #28221F",
"+ c #2F3233",
"@ c #383F40",
"# c #464D4F",
"$ c #536265",
/* pixels */
"                                                                ",
"                                                                ",
"                                                                ",
"                                                                ",
"                                                                ",
"                                                                ",
"                                                                ",
"                                                                ",
"                                                                ",
"                                                                ",
"                                                                ",
"                                                                ",
"                                                                ",
"                                                                ",
"                                                                ",
"                                                                ",
"                                                                ",
"                                                                ",
"                                                                ",
"OXXX.+                                                          ",
"XOXXX.                                                          ",
"@@@OX.                                                          ",
"@@@@X.                                                          ",
"@@@+X.                                                          ",
"@@@@X.                                                          ",
"@@@+X.                                                          ",
"@@@+X.                                                          ",
"@@@+X.                                                          ",
"@@@+X.                                                          ",
"@@@+X.                                                          ",
"@@@+XX                                                          ",
"@@@+XO                                                          ",
"@@@+OX                                                          ",
"@@@+XO                                                          ",
"@@@+OX                                                          ",
"@@@+XO                                                          ",
"@@@@OO                                                          ",
"@@@+XO                                                          ",
"@@@@OO                                                          ",
"@@@+XO                                                          ",
"@@@@OO                                                          ",
"@@@@XO                                                          ",
"#@@OOO                                                          ",
"OXOOOO                                                          ",
"XOOOO+                                                          ",
"                                                            @@@@",
"                                                            @@@@",
"                                                            #@@@",
"                                                            @@@@",
"                                                            #@@@",
"                                                            $@@@",
"                                                            $@@@",
"                                                            $@@@",
"                                                            #@@@",
"                                                            $@@@",
"                                                            @@@@",
"                                                            #@@@",
"                                                            @@@@",
"                                                            @@@@",
"                                                            @@@@",
"                                                            @@@@",
"                                                            @@@@",
"                                                            @@@@",
"                                                            XoXX"
};
